<?xml version="1.0" encoding="UTF-8"?>
<svg id="Layer_1" xmlns="http://www.w3.org/2000/svg" viewBox="0 0 637.79 127.66">
  <defs>
    <style>
      .cls-1 {
        fill: #89898a;
      }
    </style>
  </defs>
  <path class="cls-1" d="M356.69,16.94c-14.2,0-28.44,1.79-37.42,10.64-8.98,8.85-12.47,22.12-12.47,38.44s3.18,29.35,12.03,38.19,23.58,11.06,37.77,11.06,28.44-1.9,37.42-10.75,12.54-22.12,12.54-38.5-3.16-29.28-12.14-38.11c-8.98-8.82-23.51-10.97-37.73-10.97ZM378.26,89.52c-5.02,5.71-14.09,6.63-21.56,6.63s-16.52-1-21.54-6.63c-5.02-5.64-5.26-13.58-5.26-23.49s.33-17.58,5.33-23.31c5-5.73,13.05-6.63,21.54-6.63s16.54,1,21.54,6.63c5,5.64,5.33,13.38,5.33,23.31s-.38,17.76-5.37,23.49h0ZM159.82,18.68h-20.13c-.84-.01-1.54.66-1.55,1.5,0,0,0,.01,0,.02v91.76c0,.84.68,1.53,1.53,1.53,0,0,.01,0,.02,0h20.13c.85,0,1.54-.68,1.55-1.53V20.21c-.01-.85-.7-1.53-1.55-1.53ZM75.27,65.3l35.67-44.23c.51-.62.43-1.54-.2-2.05-.27-.22-.61-.34-.95-.33h-25.68c-.61,0-1.19.29-1.57.77l-23.62,31.32-23.02-31.29c-.37-.5-.95-.79-1.57-.8H8.5c-.81-.01-1.47.63-1.48,1.44,0,.35.11.69.33.95l36.16,45.05L7.31,111.13c-.5.63-.39,1.55.24,2.05.26.21.58.32.91.32h25.83c.63,0,1.22-.31,1.59-.82l24.19-31.18,22.76,31.21c.38.5.97.79,1.59.8h25.5c.81,0,1.46-.65,1.47-1.45,0-.33-.11-.65-.32-.91l-35.81-45.82ZM565.05,25.65c-8.18-7.61-21.34-8.54-31.98-8.54-13.76,0-22.51,2.92-27.82,5.66h-3.69c-5.2-2.88-14.35-5.66-28.75-5.66-10.66,0-23.71.77-31.76,7.54-6.63,5.57-8.2,13.03-8.2,28.29v58.98c.01.85.72,1.54,1.57,1.53,0,0,0,0,0,0h20.1c.85.01,1.56-.67,1.57-1.53h0v-48.54c0-8.85-.33-17.87,1.55-21.28,1.48-2.65,3.78-5.6,14.71-5.6,13.03,0,16.1.91,18.16,6.63.54,1.84.82,3.74.84,5.66v63.12c0,.84.68,1.53,1.53,1.53,0,0,.01,0,.02,0h20.1c.85.01,1.56-.67,1.57-1.53h0v-63.07c.02-1.92.3-3.82.84-5.66,2.06-5.77,5.11-6.63,18.13-6.63,10.93,0,13.27,2.94,14.71,5.6,1.9,3.41,1.55,12.52,1.55,21.28v48.65c.01.85.72,1.54,1.57,1.53,0,0,0,0,0,0h20.1c.85,0,1.54-.68,1.55-1.53v-55.29c0-16.1-.51-24.22-7.96-31.14h0ZM276.41,31.27c-9.29-12.81-26.14-16.68-43.52-15.75-11.27.44-22.44,2.42-33.17,5.88-1.95.73-1.7,2.41-1.73,3.43,0,3.38-.33,12.14-.31,15.7,0,1.57,1.92,2.21,3.54,1.73,9.02-3.27,18.38-5.5,27.91-6.63,10.33-.84,24.33,0,28.22,5.86,1.84,2.79,1.92,7.05,2.21,11.41-8.45-.92-16.96-1.21-25.46-.88-7.41.33-21.43.97-29.86,5.4-6.77,3.6-10.75,6.88-12.87,12.98-1.63,5.03-2.18,10.35-1.61,15.61,1.24,11.06,5.04,16.43,10.2,20.24,8.12,6.02,18.38,9.18,39.57,8.71,28.2-.62,35.61-9.73,39.34-16.21,6.37-11.06,5.26-28.42,5.06-39.1-.07-4.45-.73-19-7.52-28.37h0ZM258.03,89.14c-2.65,5.6-12.14,6.46-17.69,6.63-10.39.46-18.05,0-23-2.39-3.52-1.87-5.8-5.46-5.99-9.44-.18-3.6-.11-5.44,1.5-7.59,3.67-4.75,13.27-5.77,23.02-6.15,8.09-.1,16.17.37,24.19,1.39-.07,7.17-.53,14.38-2.03,17.54h0ZM626.62,18.68h-20.1c-.85-.01-1.56.67-1.57,1.53h0v91.76c.01.85.72,1.54,1.57,1.53h20.1c.85.01,1.56-.67,1.57-1.53h0V20.21c-.01-.85-.72-1.54-1.57-1.53,0,0,0,0,0,0Z"/>
</svg>